<?xml version='1.0' encoding='utf8'?>
<svg class="toyplot-canvas-Canvas" xmlns:toyplot="http://www.sandia.gov/toyplot" xmlns:xlink="http://www.w3.org/1999/xlink" xmlns="http://www.w3.org/2000/svg" width="1000.0px" height="1695.0px" viewBox="0 0 1000.0 1695.0" preserveAspectRatio="xMidYMid meet" style="background-color:transparent;border-color:#292724;border-style:none;border-width:1.0;fill:rgb(16.1%,15.3%,14.1%);fill-opacity:1.0;font-family:Helvetica;font-size:12px;opacity:1.0;stroke:rgb(16.1%,15.3%,14.1%);stroke-opacity:1.0;stroke-width:1.0" id="t61068805ace947af9f12431e3899cab5"><g class="toyplot-coordinates-Cartesian" id="tba903c60ebba44e597c403592a20db3f"><clipPath id="t718cb6228ffb4f13a112cc3744d5fc93"><rect x="30.0" y="30.0" width="940.0" height="1635.0" /></clipPath><g clip-path="url(#t718cb6228ffb4f13a112cc3744d5fc93)"><g class="toytree-mark-Toytree" id="t7973db8de7154ba6871d02794f71b38b"><g class="toytree-Edges" style="fill:none;stroke:rgb(14.9%,14.9%,14.9%);stroke-linecap:round;stroke-opacity:1;stroke-width:2"><path d="M 51.4 232.8 L 51.4 73.9 L 284.1 73.9" id="204,203" /><path d="M 51.4 232.8 L 51.4 391.6 L 171.4 391.6" id="204,202" /><path d="M 284.1 73.9 L 284.1 85.5 L 392.9 85.5" id="203,201" /><path d="M 171.4 391.6 L 171.4 133.6 L 296.0 133.6" id="202,200" /><path d="M 171.4 391.6 L 171.4 649.6 L 203.2 649.6" id="202,199" /><path d="M 296.0 133.6 L 296.0 116.3 L 542.2 116.3" id="200,198" /><path d="M 296.0 133.6 L 296.0 150.9 L 527.5 150.9" id="200,197" /><path d="M 203.2 649.6 L 203.2 320.0 L 232.4 320.0" id="199,196" /><path d="M 203.2 649.6 L 203.2 979.2 L 254.0 979.2" id="199,195" /><path d="M 527.5 150.9 L 527.5 162.5 L 585.0 162.5" id="197,194" /><path d="M 232.4 320.0 L 232.4 226.0 L 299.4 226.0" id="196,193" /><path d="M 232.4 320.0 L 232.4 414.0 L 314.5 414.0" id="196,192" /><path d="M 254.0 979.2 L 254.0 773.2 L 444.2 773.2" id="195,191" /><path d="M 254.0 979.2 L 254.0 1185.2 L 299.6 1185.2" id="195,190" /><path d="M 299.4 226.0 L 299.4 197.1 L 420.6 197.1" id="193,189" /><path d="M 299.4 226.0 L 299.4 254.8 L 607.2 254.8" id="193,188" /><path d="M 314.5 414.0 L 314.5 342.4 L 392.3 342.4" id="192,187" /><path d="M 314.5 414.0 L 314.5 485.7 L 346.7 485.7" id="192,186" /><path d="M 444.2 773.2 L 444.2 720.5 L 537.1 720.5" id="191,185" /><path d="M 444.2 773.2 L 444.2 825.9 L 554.9 825.9" id="191,184" /><path d="M 299.6 1185.2 L 299.6 1028.6 L 494.3 1028.6" id="190,183" /><path d="M 299.6 1185.2 L 299.6 1341.7 L 346.7 1341.7" id="190,182" /><path d="M 420.6 197.1 L 420.6 208.6 L 643.8 208.6" id="189,181" /><path d="M 607.2 254.8 L 607.2 239.4 L 626.1 239.4" id="188,180" /><path d="M 607.2 254.8 L 607.2 270.2 L 639.5 270.2" id="188,179" /><path d="M 392.3 342.4 L 392.3 306.8 L 398.1 306.8" id="187,178" /><path d="M 392.3 342.4 L 392.3 378.0 L 411.0 378.0" id="187,177" /><path d="M 346.7 485.7 L 346.7 508.8 L 412.2 508.8" id="186,176" /><path d="M 537.1 720.5 L 537.1 732.0 L 574.4 732.0" id="185,175" /><path d="M 554.9 825.9 L 554.9 769.6 L 572.8 769.6" id="184,174" /><path d="M 554.9 825.9 L 554.9 882.1 L 584.3 882.1" id="184,173" /><path d="M 494.3 1028.6 L 494.3 1086.6 L 534.0 1086.6" id="183,172" /><path d="M 346.7 1341.7 L 346.7 1274.2 L 462.4 1274.2" id="182,171" /><path d="M 346.7 1341.7 L 346.7 1409.3 L 413.1 1409.3" id="182,170" /><path d="M 398.1 306.8 L 398.1 320.3 L 467.9 320.3" id="178,169" /><path d="M 411.0 378.0 L 411.0 401.1 L 474.9 401.1" id="177,168" /><path d="M 412.2 508.8 L 412.2 539.5 L 460.2 539.5" id="176,167" /><path d="M 572.8 769.6 L 572.8 784.0 L 580.3 784.0" id="174,166" /><path d="M 584.3 882.1 L 584.3 845.6 L 603.1 845.6" id="173,165" /><path d="M 584.3 882.1 L 584.3 918.7 L 613.0 918.7" id="173,164" /><path d="M 534.0 1086.6 L 534.0 1022.6 L 558.3 1022.6" id="172,163" /><path d="M 534.0 1086.6 L 534.0 1150.6 L 576.9 1150.6" id="172,162" /><path d="M 462.4 1274.2 L 462.4 1243.9 L 537.8 1243.9" id="171,161" /><path d="M 462.4 1274.2 L 462.4 1304.5 L 559.6 1304.5" id="171,160" /><path d="M 413.1 1409.3 L 413.1 1378.6 L 480.0 1378.6" id="170,159" /><path d="M 413.1 1409.3 L 413.1 1439.9 L 500.5 1439.9" id="170,158" /><path d="M 467.9 320.3 L 467.9 331.8 L 656.5 331.8" id="169,157" /><path d="M 474.9 401.1 L 474.9 378.0 L 626.3 378.0" id="168,156" /><path d="M 474.9 401.1 L 474.9 424.2 L 528.2 424.2" id="168,155" /><path d="M 460.2 539.5 L 460.2 501.1 L 520.2 501.1" id="167,154" /><path d="M 460.2 539.5 L 460.2 577.9 L 504.2 577.9" id="167,153" /><path d="M 580.3 784.0 L 580.3 797.5 L 608.2 797.5" id="166,152" /><path d="M 603.1 845.6 L 603.1 859.0 L 621.0 859.0" id="165,151" /><path d="M 613.0 918.7 L 613.0 901.4 L 666.7 901.4" id="164,150" /><path d="M 613.0 918.7 L 613.0 936.0 L 637.4 936.0" id="164,149" /><path d="M 558.3 1022.6 L 558.3 993.7 L 589.2 993.7" id="163,148" /><path d="M 558.3 1022.6 L 558.3 1051.5 L 572.3 1051.5" id="163,147" /><path d="M 576.9 1150.6 L 576.9 1120.7 L 604.6 1120.7" id="162,146" /><path d="M 576.9 1150.6 L 576.9 1180.4 L 620.3 1180.4" id="162,145" /><path d="M 537.8 1243.9 L 537.8 1255.4 L 606.0 1255.4" id="161,144" /><path d="M 559.6 1304.5 L 559.6 1286.2 L 655.6 1286.2" id="160,143" /><path d="M 559.6 1304.5 L 559.6 1322.8 L 597.7 1322.8" id="160,142" /><path d="M 500.5 1439.9 L 500.5 1478.2 L 527.2 1478.2" id="158,141" /><path d="M 528.2 424.2 L 528.2 408.8 L 621.7 408.8" id="155,140" /><path d="M 528.2 424.2 L 528.2 439.6 L 578.6 439.6" id="155,139" /><path d="M 504.2 577.9 L 504.2 537.7 L 546.6 537.7" id="153,138" /><path d="M 504.2 577.9 L 504.2 618.0 L 527.8 618.0" id="153,137" /><path d="M 608.2 797.5 L 608.2 809.0 L 634.6 809.0" id="152,136" /><path d="M 621.0 859.0 L 621.0 870.6 L 636.8 870.6" id="151,135" /><path d="M 637.4 936.0 L 637.4 947.6 L 650.1 947.6" id="149,134" /><path d="M 572.3 1051.5 L 572.3 1028.4 L 583.3 1028.4" id="147,133" /><path d="M 572.3 1051.5 L 572.3 1074.6 L 627.0 1074.6" id="147,132" /><path d="M 604.6 1120.7 L 604.6 1132.3 L 647.3 1132.3" id="146,131" /><path d="M 620.3 1180.4 L 620.3 1163.1 L 648.6 1163.1" id="145,130" /><path d="M 620.3 1180.4 L 620.3 1197.7 L 637.3 1197.7" id="145,129" /><path d="M 597.7 1322.8 L 597.7 1336.3 L 642.0 1336.3" id="142,128" /><path d="M 527.2 1478.2 L 527.2 1424.8 L 614.3 1424.8" id="141,127" /><path d="M 527.2 1478.2 L 527.2 1531.6 L 558.2 1531.6" id="141,126" /><path d="M 546.6 537.7 L 546.6 551.2 L 589.3 551.2" id="138,125" /><path d="M 527.8 618.0 L 527.8 593.5 L 578.4 593.5" id="137,124" /><path d="M 527.8 618.0 L 527.8 642.6 L 548.4 642.6" id="137,123" /><path d="M 583.3 1028.4 L 583.3 1039.9 L 646.3 1039.9" id="133,122" /><path d="M 627.0 1074.6 L 627.0 1086.1 L 651.0 1086.1" id="132,121" /><path d="M 637.3 1197.7 L 637.3 1209.3 L 652.3 1209.3" id="129,120" /><path d="M 642.0 1336.3 L 642.0 1347.8 L 661.8 1347.8" id="128,119" /><path d="M 558.2 1531.6 L 558.2 1482.5 L 575.7 1482.5" id="126,118" /><path d="M 558.2 1531.6 L 558.2 1580.6 L 581.9 1580.6" id="126,117" /><path d="M 589.3 551.2 L 589.3 562.7 L 608.7 562.7" id="125,116" /><path d="M 548.4 642.6 L 548.4 624.3 L 600.4 624.3" id="123,115" /><path d="M 548.4 642.6 L 548.4 660.8 L 580.7 660.8" id="123,114" /><path d="M 575.7 1482.5 L 575.7 1459.4 L 627.3 1459.4" id="118,113" /><path d="M 575.7 1482.5 L 575.7 1505.6 L 603.0 1505.6" id="118,112" /><path d="M 581.9 1580.6 L 581.9 1551.8 L 633.2 1551.8" id="117,111" /><path d="M 581.9 1580.6 L 581.9 1609.5 L 606.9 1609.5" id="117,110" /><path d="M 580.7 660.8 L 580.7 674.3 L 615.6 674.3" id="114,109" /><path d="M 627.3 1459.4 L 627.3 1471.0 L 653.2 1471.0" id="113,108" /><path d="M 603.0 1505.6 L 603.0 1517.1 L 638.6 1517.1" id="112,107" /><path d="M 633.2 1551.8 L 633.2 1563.3 L 644.9 1563.3" id="111,106" /><path d="M 606.9 1609.5 L 606.9 1594.1 L 631.5 1594.1" id="110,105" /><path d="M 606.9 1609.5 L 606.9 1624.9 L 643.1 1624.9" id="110,104" /><path d="M 615.6 674.3 L 615.6 685.9 L 636.8 685.9" id="109,103" /><path d="M 284.1 73.9 L 284.1 62.4 L 416.1 62.4" id="203,102" /><path d="M 392.9 85.5 L 392.9 77.8 L 496.4 77.8" id="201,101" /><path d="M 392.9 85.5 L 392.9 93.2 L 428.9 93.2" id="201,100" /><path d="M 542.2 116.3 L 542.2 108.6 L 573.7 108.6" id="198,99" /><path d="M 542.2 116.3 L 542.2 124.0 L 572.7 124.0" id="198,98" /><path d="M 527.5 150.9 L 527.5 139.4 L 568.7 139.4" id="197,97" /><path d="M 585.0 162.5 L 585.0 154.8 L 673.3 154.8" id="194,96" /><path d="M 585.0 162.5 L 585.0 170.2 L 673.3 170.2" id="194,95" /><path d="M 420.6 197.1 L 420.6 185.6 L 497.1 185.6" id="189,94" /><path d="M 643.8 208.6 L 643.8 201.0 L 673.3 201.0" id="181,93" /><path d="M 643.8 208.6 L 643.8 216.3 L 673.3 216.3" id="181,92" /><path d="M 626.1 239.4 L 626.1 231.7 L 673.3 231.7" id="180,91" /><path d="M 626.1 239.4 L 626.1 247.1 L 673.3 247.1" id="180,90" /><path d="M 639.5 270.2 L 639.5 262.5 L 673.3 262.5" id="179,89" /><path d="M 639.5 270.2 L 639.5 277.9 L 673.3 277.9" id="179,88" /><path d="M 398.1 306.8 L 398.1 293.3 L 490.1 293.3" id="178,87" /><path d="M 467.9 320.3 L 467.9 308.7 L 673.3 308.7" id="169,86" /><path d="M 656.5 331.8 L 656.5 324.1 L 673.3 324.1" id="157,85" /><path d="M 656.5 331.8 L 656.5 339.5 L 673.3 339.5" id="157,84" /><path d="M 411.0 378.0 L 411.0 354.9 L 494.8 354.9" id="177,83" /><path d="M 626.3 378.0 L 626.3 370.3 L 673.3 370.3" id="156,82" /><path d="M 626.3 378.0 L 626.3 385.7 L 673.3 385.7" id="156,81" /><path d="M 621.7 408.8 L 621.7 401.1 L 673.3 401.1" id="140,80" /><path d="M 621.7 408.8 L 621.7 416.5 L 673.3 416.5" id="140,79" /><path d="M 578.6 439.6 L 578.6 431.9 L 673.3 431.9" id="139,78" /><path d="M 578.6 439.6 L 578.6 447.3 L 673.3 447.3" id="139,77" /><path d="M 346.7 485.7 L 346.7 462.6 L 453.4 462.6" id="186,76" /><path d="M 412.2 508.8 L 412.2 478.0 L 673.3 478.0" id="176,75" /><path d="M 520.2 501.1 L 520.2 493.4 L 673.3 493.4" id="154,74" /><path d="M 520.2 501.1 L 520.2 508.8 L 673.3 508.8" id="154,73" /><path d="M 546.6 537.7 L 546.6 524.2 L 673.3 524.2" id="138,72" /><path d="M 589.3 551.2 L 589.3 539.6 L 673.3 539.6" id="125,71" /><path d="M 608.7 562.7 L 608.7 555.0 L 673.3 555.0" id="116,70" /><path d="M 608.7 562.7 L 608.7 570.4 L 673.3 570.4" id="116,69" /><path d="M 578.4 593.5 L 578.4 585.8 L 673.3 585.8" id="124,68" /><path d="M 578.4 593.5 L 578.4 601.2 L 673.3 601.2" id="124,67" /><path d="M 600.4 624.3 L 600.4 616.6 L 673.3 616.6" id="115,66" /><path d="M 600.4 624.3 L 600.4 632.0 L 673.3 632.0" id="115,65" /><path d="M 580.7 660.8 L 580.7 647.4 L 673.3 647.4" id="114,64" /><path d="M 615.6 674.3 L 615.6 662.8 L 673.3 662.8" id="109,63" /><path d="M 636.8 685.9 L 636.8 678.2 L 673.3 678.2" id="103,62" /><path d="M 636.8 685.9 L 636.8 693.6 L 673.3 693.6" id="103,61" /><path d="M 537.1 720.5 L 537.1 709.0 L 636.4 709.0" id="185,60" /><path d="M 574.4 732.0 L 574.4 724.3 L 673.3 724.3" id="175,59" /><path d="M 574.4 732.0 L 574.4 739.7 L 673.3 739.7" id="175,58" /><path d="M 572.8 769.6 L 572.8 755.1 L 673.3 755.1" id="174,57" /><path d="M 580.3 784.0 L 580.3 770.5 L 601.9 770.5" id="166,56" /><path d="M 608.2 797.5 L 608.2 785.9 L 673.3 785.9" id="152,55" /><path d="M 634.6 809.0 L 634.6 801.3 L 673.3 801.3" id="136,54" /><path d="M 634.6 809.0 L 634.6 816.7 L 673.3 816.7" id="136,53" /><path d="M 603.1 845.6 L 603.1 832.1 L 673.3 832.1" id="165,52" /><path d="M 621.0 859.0 L 621.0 847.5 L 673.3 847.5" id="151,51" /><path d="M 636.8 870.6 L 636.8 862.9 L 673.3 862.9" id="135,50" /><path d="M 636.8 870.6 L 636.8 878.3 L 673.3 878.3" id="135,49" /><path d="M 666.7 901.4 L 666.7 893.7 L 673.3 893.7" id="150,48" /><path d="M 666.7 901.4 L 666.7 909.1 L 673.3 909.1" id="150,47" /><path d="M 637.4 936.0 L 637.4 924.5 L 673.3 924.5" id="149,46" /><path d="M 650.1 947.6 L 650.1 939.9 L 673.3 939.9" id="134,45" /><path d="M 650.1 947.6 L 650.1 955.3 L 673.3 955.3" id="134,44" /><path d="M 494.3 1028.6 L 494.3 970.7 L 552.3 970.7" id="183,43" /><path d="M 589.2 993.7 L 589.2 986.0 L 601.5 986.0" id="148,42" /><path d="M 589.2 993.7 L 589.2 1001.4 L 673.3 1001.4" id="148,41" /><path d="M 583.3 1028.4 L 583.3 1016.8 L 600.2 1016.8" id="133,40" /><path d="M 646.3 1039.9 L 646.3 1032.2 L 673.3 1032.2" id="122,39" /><path d="M 646.3 1039.9 L 646.3 1047.6 L 673.3 1047.6" id="122,38" /><path d="M 627.0 1074.6 L 627.0 1063.0 L 673.3 1063.0" id="132,37" /><path d="M 651.0 1086.1 L 651.0 1078.4 L 673.3 1078.4" id="121,36" /><path d="M 651.0 1086.1 L 651.0 1093.8 L 673.3 1093.8" id="121,35" /><path d="M 604.6 1120.7 L 604.6 1109.2 L 617.5 1109.2" id="146,34" /><path d="M 647.3 1132.3 L 647.3 1124.6 L 673.3 1124.6" id="131,33" /><path d="M 647.3 1132.3 L 647.3 1140.0 L 673.3 1140.0" id="131,32" /><path d="M 648.6 1163.1 L 648.6 1155.4 L 673.3 1155.4" id="130,31" /><path d="M 648.6 1163.1 L 648.6 1170.8 L 673.3 1170.8" id="130,30" /><path d="M 637.3 1197.7 L 637.3 1186.2 L 673.3 1186.2" id="129,29" /><path d="M 652.3 1209.3 L 652.3 1201.6 L 673.3 1201.6" id="120,28" /><path d="M 652.3 1209.3 L 652.3 1217.0 L 673.3 1217.0" id="120,27" /><path d="M 537.8 1243.9 L 537.8 1232.4 L 583.8 1232.4" id="161,26" /><path d="M 606.0 1255.4 L 606.0 1247.7 L 673.3 1247.7" id="144,25" /><path d="M 606.0 1255.4 L 606.0 1263.1 L 673.3 1263.1" id="144,24" /><path d="M 655.6 1286.2 L 655.6 1278.5 L 673.3 1278.5" id="143,23" /><path d="M 655.6 1286.2 L 655.6 1293.9 L 673.3 1293.9" id="143,22" /><path d="M 597.7 1322.8 L 597.7 1309.3 L 673.3 1309.3" id="142,21" /><path d="M 642.0 1336.3 L 642.0 1324.7 L 673.3 1324.7" id="128,20" /><path d="M 661.8 1347.8 L 661.8 1340.1 L 673.3 1340.1" id="119,19" /><path d="M 661.8 1347.8 L 661.8 1355.5 L 673.3 1355.5" id="119,18" /><path d="M 480.0 1378.6 L 480.0 1370.9 L 513.2 1370.9" id="159,17" /><path d="M 480.0 1378.6 L 480.0 1386.3 L 513.6 1386.3" id="159,16" /><path d="M 500.5 1439.9 L 500.5 1401.7 L 528.8 1401.7" id="158,15" /><path d="M 614.3 1424.8 L 614.3 1417.1 L 673.3 1417.1" id="127,14" /><path d="M 614.3 1424.8 L 614.3 1432.5 L 673.3 1432.5" id="127,13" /><path d="M 627.3 1459.4 L 627.3 1447.9 L 673.3 1447.9" id="113,12" /><path d="M 653.2 1471.0 L 653.2 1463.3 L 673.3 1463.3" id="108,11" /><path d="M 653.2 1471.0 L 653.2 1478.7 L 673.3 1478.7" id="108,10" /><path d="M 603.0 1505.6 L 603.0 1494.0 L 673.3 1494.0" id="112,9" /><path d="M 638.6 1517.1 L 638.6 1509.4 L 673.3 1509.4" id="107,8" /><path d="M 638.6 1517.1 L 638.6 1524.8 L 673.3 1524.8" id="107,7" /><path d="M 633.2 1551.8 L 633.2 1540.2 L 673.3 1540.2" id="111,6" /><path d="M 644.9 1563.3 L 644.9 1555.6 L 673.3 1555.6" id="106,5" /><path d="M 644.9 1563.3 L 644.9 1571.0 L 673.3 1571.0" id="106,4" /><path d="M 631.5 1594.1 L 631.5 1586.4 L 673.3 1586.4" id="105,3" /><path d="M 631.5 1594.1 L 631.5 1601.8 L 673.3 1601.8" id="105,2" /><path d="M 643.1 1624.9 L 643.1 1617.2 L 673.3 1617.2" id="104,1" /><path d="M 643.1 1624.9 L 643.1 1632.6 L 673.3 1632.6" id="104,0" /></g><g class="toytree-AlignEdges" style="stroke:rgb(66.3%,66.3%,66.3%);stroke-dasharray:2, 4;stroke-linecap:round;stroke-opacity:1.0;stroke-width:2"><path d="M 673.3 1632.6 L 673.3 1632.6" /><path d="M 673.3 1617.2 L 673.3 1617.2" /><path d="M 673.3 1601.8 L 673.3 1601.8" /><path d="M 673.3 1586.4 L 673.3 1586.4" /><path d="M 673.3 1571.0 L 673.3 1571.0" /><path d="M 673.3 1555.6 L 673.3 1555.6" /><path d="M 673.3 1540.2 L 673.3 1540.2" /><path d="M 673.3 1524.8 L 673.3 1524.8" /><path d="M 673.3 1509.4 L 673.3 1509.4" /><path d="M 673.3 1494.0 L 673.3 1494.0" /><path d="M 673.3 1478.7 L 673.3 1478.7" /><path d="M 673.3 1463.3 L 673.3 1463.3" /><path d="M 673.3 1447.9 L 673.3 1447.9" /><path d="M 673.3 1432.5 L 673.3 1432.5" /><path d="M 673.3 1417.1 L 673.3 1417.1" /><path d="M 673.3 1401.7 L 528.8 1401.7" /><path d="M 673.3 1386.3 L 513.6 1386.3" /><path d="M 673.3 1370.9 L 513.2 1370.9" /><path d="M 673.3 1355.5 L 673.3 1355.5" /><path d="M 673.3 1340.1 L 673.3 1340.1" /><path d="M 673.3 1324.7 L 673.3 1324.7" /><path d="M 673.3 1309.3 L 673.3 1309.3" /><path d="M 673.3 1293.9 L 673.3 1293.9" /><path d="M 673.3 1278.5 L 673.3 1278.5" /><path d="M 673.3 1263.1 L 673.3 1263.1" /><path d="M 673.3 1247.7 L 673.3 1247.7" /><path d="M 673.3 1232.4 L 583.8 1232.4" /><path d="M 673.3 1217.0 L 673.3 1217.0" /><path d="M 673.3 1201.6 L 673.3 1201.6" /><path d="M 673.3 1186.2 L 673.3 1186.2" /><path d="M 673.3 1170.8 L 673.3 1170.8" /><path d="M 673.3 1155.4 L 673.3 1155.4" /><path d="M 673.3 1140.0 L 673.3 1140.0" /><path d="M 673.3 1124.6 L 673.3 1124.6" /><path d="M 673.3 1109.2 L 617.5 1109.2" /><path d="M 673.3 1093.8 L 673.3 1093.8" /><path d="M 673.3 1078.4 L 673.3 1078.4" /><path d="M 673.3 1063.0 L 673.3 1063.0" /><path d="M 673.3 1047.6 L 673.3 1047.6" /><path d="M 673.3 1032.2 L 673.3 1032.2" /><path d="M 673.3 1016.8 L 600.2 1016.8" /><path d="M 673.3 1001.4 L 673.3 1001.4" /><path d="M 673.3 986.0 L 601.5 986.0" /><path d="M 673.3 970.7 L 552.3 970.7" /><path d="M 673.3 955.3 L 673.3 955.3" /><path d="M 673.3 939.9 L 673.3 939.9" /><path d="M 673.3 924.5 L 673.3 924.5" /><path d="M 673.3 909.1 L 673.3 909.1" /><path d="M 673.3 893.7 L 673.3 893.7" /><path d="M 673.3 878.3 L 673.3 878.3" /><path d="M 673.3 862.9 L 673.3 862.9" /><path d="M 673.3 847.5 L 673.3 847.5" /><path d="M 673.3 832.1 L 673.3 832.1" /><path d="M 673.3 816.7 L 673.3 816.7" /><path d="M 673.3 801.3 L 673.3 801.3" /><path d="M 673.3 785.9 L 673.3 785.9" /><path d="M 673.3 770.5 L 601.9 770.5" /><path d="M 673.3 755.1 L 673.3 755.1" /><path d="M 673.3 739.7 L 673.3 739.7" /><path d="M 673.3 724.3 L 673.3 724.3" /><path d="M 673.3 709.0 L 636.4 709.0" /><path d="M 673.3 693.6 L 673.3 693.6" /><path d="M 673.3 678.2 L 673.3 678.2" /><path d="M 673.3 662.8 L 673.3 662.8" /><path d="M 673.3 647.4 L 673.3 647.4" /><path d="M 673.3 632.0 L 673.3 632.0" /><path d="M 673.3 616.6 L 673.3 616.6" /><path d="M 673.3 601.2 L 673.3 601.2" /><path d="M 673.3 585.8 L 673.3 585.8" /><path d="M 673.3 570.4 L 673.3 570.4" /><path d="M 673.3 555.0 L 673.3 555.0" /><path d="M 673.3 539.6 L 673.3 539.6" /><path d="M 673.3 524.2 L 673.3 524.2" /><path d="M 673.3 508.8 L 673.3 508.8" /><path d="M 673.3 493.4 L 673.3 493.4" /><path d="M 673.3 478.0 L 673.3 478.0" /><path d="M 673.3 462.6 L 453.4 462.6" /><path d="M 673.3 447.3 L 673.3 447.3" /><path d="M 673.3 431.9 L 673.3 431.9" /><path d="M 673.3 416.5 L 673.3 416.5" /><path d="M 673.3 401.1 L 673.3 401.1" /><path d="M 673.3 385.7 L 673.3 385.7" /><path d="M 673.3 370.3 L 673.3 370.3" /><path d="M 673.3 354.9 L 494.8 354.9" /><path d="M 673.3 339.5 L 673.3 339.5" /><path d="M 673.3 324.1 L 673.3 324.1" /><path d="M 673.3 308.7 L 673.3 308.7" /><path d="M 673.3 293.3 L 490.1 293.3" /><path d="M 673.3 277.9 L 673.3 277.9" /><path d="M 673.3 262.5 L 673.3 262.5" /><path d="M 673.3 247.1 L 673.3 247.1" /><path d="M 673.3 231.7 L 673.3 231.7" /><path d="M 673.3 216.3 L 673.3 216.3" /><path d="M 673.3 201.0 L 673.3 201.0" /><path d="M 673.3 185.6 L 497.1 185.6" /><path d="M 673.3 170.2 L 673.3 170.2" /><path d="M 673.3 154.8 L 673.3 154.8" /><path d="M 673.3 139.4 L 568.7 139.4" /><path d="M 673.3 124.0 L 572.7 124.0" /><path d="M 673.3 108.6 L 573.7 108.6" /><path d="M 673.3 93.2 L 428.9 93.2" /><path d="M 673.3 77.8 L 496.4 77.8" /><path d="M 673.3 62.4 L 416.1 62.4" /></g><g class="toytree-TipLabels" style="fill:rgb(14.9%,14.9%,14.9%);fill-opacity:1.0;font-family:helvetica;font-size:11px;font-weight:normal;stroke:none;white-space:pre"><g transform="translate(673.33,1632.60)rotate(0)"><a href="https://glottolog.org/resource/languoid/id/roma1326#############"><text x="15.00" y="2.81" style="" fill="#0000ff">Romansh - Romansh [roma1326#############]</text></a></g><g transform="translate(673.33,1617.20)rotate(0)"><a href="https://glottolog.org/resource/languoid/id/ladi1250#############"><text x="15.00" y="2.81" style="" fill="#0000ff">Ladin - Ladin [ladi1250#############]</text></a></g><g transform="translate(673.33,1601.81)rotate(0)"><a href="https://glottolog.org/resource/languoid/id/ital1282#############"><text x="15.00" y="2.81" style="" fill="#0000ff">Italian - Italian [ital1282#############]</text></a></g><g transform="translate(673.33,1586.41)rotate(0)"><a href="https://glottolog.org/resource/languoid/id/friu1240#############"><text x="15.00" y="2.81" style="" fill="#0000ff">Friulian - Friulian [friu1240#############]</text></a></g><g transform="translate(673.33,1571.02)rotate(0)"><a href="https://glottolog.org/resource/languoid/id/nuor1238#############"><text x="15.00" y="2.81" style="" fill="#0000ff">Sardinian_N - Nuorese [nuor1238#############]</text></a></g><g transform="translate(673.33,1555.63)rotate(0)"><a href="https://glottolog.org/resource/languoid/id/camp1261#############"><text x="15.00" y="2.81" style="" fill="#0000ff">Sardinian_C - Campidanese Sardinian [camp1261#############]</text></a></g><g transform="translate(673.33,1540.23)rotate(0)"><a href="https://glottolog.org/resource/languoid/id/logu1236#############"><text x="15.00" y="2.81" style="" fill="#0000ff">Sardinian_L - Logudorese Sardinian [logu1236#############]</text></a></g><g transform="translate(673.33,1524.84)rotate(0)"><a href="https://glottolog.org/resource/languoid/id/port1283#############"><text x="15.00" y="2.81" style="" fill="#0000ff">Portuguese_ST - Portuguese [port1283#############]</text></a></g><g transform="translate(673.33,1509.44)rotate(0)"><a href="https://glottolog.org/resource/languoid/id/stan1288#############"><text x="15.00" y="2.81" style="" fill="#0000ff">Spanish - Spanish [stan1288#############]</text></a></g><g transform="translate(673.33,1494.05)rotate(0)"><a href="https://glottolog.org/resource/languoid/id/stan1289#############"><text x="15.00" y="2.81" style="" fill="#0000ff">Catalan - Catalan [stan1289#############]</text></a></g><g transform="translate(673.33,1478.66)rotate(0)"><a href="https://glottolog.org/resource/languoid/id/stan1290#############"><text x="15.00" y="2.81" style="" fill="#0000ff">French - French [stan1290#############]</text></a></g><g transform="translate(673.33,1463.26)rotate(0)"><a href="https://glottolog.org/resource/languoid/id/wall1255#############"><text x="15.00" y="2.81" style="" fill="#0000ff">Walloon - Walloon [wall1255#############]</text></a></g><g transform="translate(673.33,1447.87)rotate(0)"><a href="https://glottolog.org/resource/languoid/id/occi1239#############"><text x="15.00" y="2.81" style="" fill="#0000ff">Provencal - Occitan [occi1239#############]</text></a></g><g transform="translate(673.33,1432.47)rotate(0)"><a href="https://glottolog.org/resource/languoid/id/roma1327#############"><text x="15.00" y="2.81" style="" fill="#0000ff">Romanian_List - Romanian [roma1327#############]</text></a></g><g transform="translate(673.33,1417.08)rotate(0)"><a href="https://glottolog.org/resource/languoid/id/arom1237#############"><text x="15.00" y="2.81" style="" fill="#0000ff">Vlach - Aromanian [arom1237#############]</text></a></g><g transform="translate(673.33,1401.69)rotate(0)"><a href="https://glottolog.org/resource/languoid/id/lati1261#############"><text x="15.00" y="2.81" style="" fill="#0000ff">Latin - Latin [lati1261#############]</text></a></g><g transform="translate(673.33,1386.29)rotate(0)"><a href="https://glottolog.org/resource/languoid/id/umbr1253#############"><text x="15.00" y="2.81" style="" fill="#0000ff">Umbrian - Umbrian [umbr1253#############]</text></a></g><g transform="translate(673.33,1370.90)rotate(0)"><a href="https://glottolog.org/resource/languoid/id/osca1245#############"><text x="15.00" y="2.81" style="" fill="#0000ff">Oscan - Oscan [osca1245#############]</text></a></g><g transform="translate(673.33,1355.50)rotate(0)"><a href="https://glottolog.org/resource/languoid/id/bret1244#############"><text x="15.00" y="2.81" style="" fill="#0000ff">Breton_SE - Breton [bret1244#############]</text></a></g><g transform="translate(673.33,1340.11)rotate(0)"><a href="https://glottolog.org/resource/languoid/id/bret1244#############"><text x="15.00" y="2.81" style="" fill="#0000ff">Breton_ST - Breton [bret1244#############]</text></a></g><g transform="translate(673.33,1324.72)rotate(0)"><a href="https://glottolog.org/resource/languoid/id/bret1244#############"><text x="15.00" y="2.81" style="" fill="#0000ff">Breton_List - Breton [bret1244#############]</text></a></g><g transform="translate(673.33,1309.32)rotate(0)"><a href="https://glottolog.org/resource/languoid/id/corn1251#############"><text x="15.00" y="2.81" style="" fill="#0000ff">Cornish - Cornish [corn1251#############]</text></a></g><g transform="translate(673.33,1293.93)rotate(0)"><a href="https://glottolog.org/resource/languoid/id/wels1247#############"><text x="15.00" y="2.81" style="" fill="#0000ff">Welsh_C - Welsh [wels1247#############]</text></a></g><g transform="translate(673.33,1278.53)rotate(0)"><a href="https://glottolog.org/resource/languoid/id/wels1247#############"><text x="15.00" y="2.81" style="" fill="#0000ff">Welsh_N - Welsh [wels1247#############]</text></a></g><g transform="translate(673.33,1263.14)rotate(0)"><a href="https://glottolog.org/resource/languoid/id/scot1245#############"><text x="15.00" y="2.81" style="" fill="#0000ff">Scots_Gaelic - Scottish Gaelic [scot1245#############]</text></a></g><g transform="translate(673.33,1247.75)rotate(0)"><a href="https://glottolog.org/resource/languoid/id/iris1253#############"><text x="15.00" y="2.81" style="" fill="#0000ff">Irish_A - Irish [iris1253#############]</text></a></g><g transform="translate(673.33,1232.35)rotate(0)"><a href="https://glottolog.org/resource/languoid/id/oldi1245#############"><text x="15.00" y="2.81" style="" fill="#0000ff">Old_Irish - Early Irish [oldi1245#############]</text></a></g><g transform="translate(673.33,1216.96)rotate(0)"><a href="https://glottolog.org/resource/languoid/id/swed1254#############"><text x="15.00" y="2.81" style="" fill="#0000ff">Swedish_Up - Swedish [swed1254#############]</text></a></g><g transform="translate(673.33,1201.56)rotate(0)"><a href="https://glottolog.org/resource/languoid/id/swed1254#############"><text x="15.00" y="2.81" style="" fill="#0000ff">Swedish_VL - Swedish [swed1254#############]</text></a></g><g transform="translate(673.33,1186.17)rotate(0)"><a href="https://glottolog.org/resource/languoid/id/swed1254#############"><text x="15.00" y="2.81" style="" fill="#0000ff">Swedish_List - Swedish [swed1254#############]</text></a></g><g transform="translate(673.33,1170.77)rotate(0)"><a href="https://glottolog.org/resource/languoid/id/dani1285#############"><text x="15.00" y="2.81" style="" fill="#0000ff">Danish - Danish [dani1285#############]</text></a></g><g transform="translate(673.33,1155.38)rotate(0)"><a href="https://glottolog.org/resource/languoid/id/norw1258#############"><text x="15.00" y="2.81" style="" fill="#0000ff">Riksmal - Norwegian [norw1258#############]</text></a></g><g transform="translate(673.33,1139.99)rotate(0)"><a href="https://glottolog.org/resource/languoid/id/icel1247#############"><text x="15.00" y="2.81" style="" fill="#0000ff">Icelandic_ST - Icelandic [icel1247#############]</text></a></g><g transform="translate(673.33,1124.59)rotate(0)"><a href="https://glottolog.org/resource/languoid/id/faro1244#############"><text x="15.00" y="2.81" style="" fill="#0000ff">Faroese - Faroese [faro1244#############]</text></a></g><g transform="translate(673.33,1109.20)rotate(0)"><a href="https://glottolog.org/resource/languoid/id/oldn1244#############"><text x="15.00" y="2.81" style="" fill="#0000ff">Old_Norse - Old Norse [oldn1244#############]</text></a></g><g transform="translate(673.33,1093.80)rotate(0)"><a href="https://glottolog.org/resource/languoid/id/dutc1256#############"><text x="15.00" y="2.81" style="" fill="#0000ff">Dutch_List - Dutch [dutc1256#############]</text></a></g><g transform="translate(673.33,1078.41)rotate(0)"><a href="https://glottolog.org/resource/languoid/id/vlaa1240#############"><text x="15.00" y="2.81" style="" fill="#0000ff">Flemish - Western Flemish [vlaa1240#############]</text></a></g><g transform="translate(673.33,1063.02)rotate(0)"><a href="https://glottolog.org/resource/languoid/id/east2288#############"><text x="15.00" y="2.81" style="" fill="#0000ff">Frisian - East Frisian Low Saxon [east2288#############]</text></a></g><g transform="translate(673.33,1047.62)rotate(0)"><a href="https://glottolog.org/resource/languoid/id/stan1295#############"><text x="15.00" y="2.81" style="" fill="#0000ff">German_ST - German [stan1295#############]</text></a></g><g transform="translate(673.33,1032.23)rotate(0)"><a href="https://glottolog.org/resource/languoid/id/luxe1241#############"><text x="15.00" y="2.81" style="" fill="#0000ff">Luxembourgish - Moselle Franconian [luxe1241#############]</text></a></g><g transform="translate(673.33,1016.83)rotate(0)"><a href="https://glottolog.org/resource/languoid/id/oldh1241#############"><text x="15.00" y="2.81" style="" fill="#0000ff">Old_High_German - Old High German (ca. 750-1050) [oldh1241#############]</text></a></g><g transform="translate(673.33,1001.44)rotate(0)"><a href="https://glottolog.org/resource/languoid/id/stan1293#############"><text x="15.00" y="2.81" style="" fill="#0000ff">English_ST - English [stan1293#############]</text></a></g><g transform="translate(673.33,986.05)rotate(0)"><a href="https://glottolog.org/resource/languoid/id/olde1238#############"><text x="15.00" y="2.81" style="" fill="#0000ff">Old_English - Old English (ca. 450-1100) [olde1238#############]</text></a></g><g transform="translate(673.33,970.65)rotate(0)"><a href="https://glottolog.org/resource/languoid/id/goth1244#############"><text x="15.00" y="2.81" style="" fill="#0000ff">Gothic - Gothic [goth1244#############]</text></a></g><g transform="translate(673.33,955.26)rotate(0)"><a href="https://glottolog.org/resource/languoid/id/czec1258#############"><text x="15.00" y="2.81" style="" fill="#0000ff">Czech_E - Czech [czec1258#############]</text></a></g><g transform="translate(673.33,939.86)rotate(0)"><a href="https://glottolog.org/resource/languoid/id/czec1258#############"><text x="15.00" y="2.81" style="" fill="#0000ff">Czech - Czech [czec1258#############]</text></a></g><g transform="translate(673.33,924.47)rotate(0)"><a href="https://glottolog.org/resource/languoid/id/slov1269#############"><text x="15.00" y="2.81" style="" fill="#0000ff">Slovak - Slovak [slov1269#############]</text></a></g><g transform="translate(673.33,909.08)rotate(0)"><a href="https://glottolog.org/resource/languoid/id/lowe1385#############"><text x="15.00" y="2.81" style="" fill="#0000ff">Lusatian_L - Lower Sorbian [lowe1385#############]</text></a></g><g transform="translate(673.33,893.68)rotate(0)"><a href="https://glottolog.org/resource/languoid/id/uppe1395#############"><text x="15.00" y="2.81" style="" fill="#0000ff">Lusatian_U - Upper Sorbian [uppe1395#############]</text></a></g><g transform="translate(673.33,878.29)rotate(0)"><a href="https://glottolog.org/resource/languoid/id/bela1254#############"><text x="15.00" y="2.81" style="" fill="#0000ff">Byelorussian - Belarusian [bela1254#############]</text></a></g><g transform="translate(673.33,862.89)rotate(0)"><a href="https://glottolog.org/resource/languoid/id/poli1260#############"><text x="15.00" y="2.81" style="" fill="#0000ff">Polish - Polish [poli1260#############]</text></a></g><g transform="translate(673.33,847.50)rotate(0)"><a href="https://glottolog.org/resource/languoid/id/ukra1253#############"><text x="15.00" y="2.81" style="" fill="#0000ff">Ukrainian - Ukrainian [ukra1253#############]</text></a></g><g transform="translate(673.33,832.11)rotate(0)"><a href="https://glottolog.org/resource/languoid/id/russ1263#############"><text x="15.00" y="2.81" style="" fill="#0000ff">Russian - Russian [russ1263#############]</text></a></g><g transform="translate(673.33,816.71)rotate(0)"><a href="https://glottolog.org/resource/languoid/id/mace1250#############"><text x="15.00" y="2.81" style="" fill="#0000ff">Macedonian - Macedonian [mace1250#############]</text></a></g><g transform="translate(673.33,801.32)rotate(0)"><a href="https://glottolog.org/resource/languoid/id/bulg1262#############"><text x="15.00" y="2.81" style="" fill="#0000ff">Bulgarian - Bulgarian [bulg1262#############]</text></a></g><g transform="translate(673.33,785.92)rotate(0)"><a href="https://glottolog.org/resource/languoid/id/serb1264#############"><text x="15.00" y="2.81" style="" fill="#0000ff">Serbocroatian - Serbian Standard [serb1264#############]</text></a></g><g transform="translate(673.33,770.53)rotate(0)"><a href="https://glottolog.org/resource/languoid/id/chur1257#############"><text x="15.00" y="2.81" style="" fill="#0000ff">Old_Church_Slavonic - Church Slavic [chur1257#############]</text></a></g><g transform="translate(673.33,755.14)rotate(0)"><a href="https://glottolog.org/resource/languoid/id/slov1268#############"><text x="15.00" y="2.81" style="" fill="#0000ff">Slovenian - Slovenian [slov1268#############]</text></a></g><g transform="translate(673.33,739.74)rotate(0)"><a href="https://glottolog.org/resource/languoid/id/lith1251#############"><text x="15.00" y="2.81" style="" fill="#0000ff">Lithuanian_ST - Lithuanian [lith1251#############]</text></a></g><g transform="translate(673.33,724.35)rotate(0)"><a href="https://glottolog.org/resource/languoid/id/latv1249#############"><text x="15.00" y="2.81" style="" fill="#0000ff">Latvian - Latvian [latv1249#############]</text></a></g><g transform="translate(673.33,708.95)rotate(0)"><a href="https://glottolog.org/resource/languoid/id/prus1238#############"><text x="15.00" y="2.81" style="" fill="#0000ff">Old_Prussian - Old Prussian [prus1238#############]</text></a></g><g transform="translate(673.33,693.56)rotate(0)"><a href="https://glottolog.org/resource/languoid/id/urdu1245#############"><text x="15.00" y="2.81" style="" fill="#0000ff">Urdu - Urdu [urdu1245#############]</text></a></g><g transform="translate(673.33,678.17)rotate(0)"><a href="https://glottolog.org/resource/languoid/id/west2386#############"><text x="15.00" y="2.81" style="" fill="#0000ff">Lahnda - Western Panjabi [west2386#############]</text></a></g><g transform="translate(673.33,662.77)rotate(0)"><a href="https://glottolog.org/resource/languoid/id/hind1269#############"><text x="15.00" y="2.81" style="" fill="#0000ff">Hindi - Hindi [hind1269#############]</text></a></g><g transform="translate(673.33,647.38)rotate(0)"><a href="https://glottolog.org/resource/languoid/id/mait1250#############"><text x="15.00" y="2.81" style="" fill="#0000ff">Bihari - Maithili [mait1250#############]</text></a></g><g transform="translate(673.33,631.98)rotate(0)"><a href="https://glottolog.org/resource/languoid/id/mara1378#############"><text x="15.00" y="2.81" style="" fill="#0000ff">Marathi - Marathi [mara1378#############]</text></a></g><g transform="translate(673.33,616.59)rotate(0)"><a href="https://glottolog.org/resource/languoid/id/guja1252#############"><text x="15.00" y="2.81" style="" fill="#0000ff">Gujarati - Gujarati [guja1252#############]</text></a></g><g transform="translate(673.33,601.20)rotate(0)"><a href="https://glottolog.org/resource/languoid/id/sind1272#############"><text x="15.00" y="2.81" style="" fill="#0000ff">Sindhi - Sindhi [sind1272#############]</text></a></g><g transform="translate(673.33,585.80)rotate(0)"><a href="https://glottolog.org/resource/languoid/id/marw1260#############"><text x="15.00" y="2.81" style="" fill="#0000ff">Marwari - Marwari (India) [marw1260#############]</text></a></g><g transform="translate(673.33,570.41)rotate(0)"><a href="https://glottolog.org/resource/languoid/id/oriy1255#############"><text x="15.00" y="2.81" style="" fill="#0000ff">Oriya - Odia [oriy1255#############]</text></a></g><g transform="translate(673.33,555.01)rotate(0)"><a href="https://glottolog.org/resource/languoid/id/assa1263#############"><text x="15.00" y="2.81" style="" fill="#0000ff">Assamese - Assamese [assa1263#############]</text></a></g><g transform="translate(673.33,539.62)rotate(0)"><a href="https://glottolog.org/resource/languoid/id/beng1280#############"><text x="15.00" y="2.81" style="" fill="#0000ff">Bengali - Bengali [beng1280#############]</text></a></g><g transform="translate(673.33,524.23)rotate(0)"><a href="https://glottolog.org/resource/languoid/id/nepa1254#############"><text x="15.00" y="2.81" style="" fill="#0000ff">Nepali_List - Nepali [nepa1254#############]</text></a></g><g transform="translate(673.33,508.83)rotate(0)"><a href="https://glottolog.org/resource/languoid/id/sinh1246#############"><text x="15.00" y="2.81" style="" fill="#0000ff">Singhalese - Sinhala [sinh1246#############]</text></a></g><g transform="translate(673.33,493.44)rotate(0)"><a href="https://glottolog.org/resource/languoid/id/kash1277#############"><text x="15.00" y="2.81" style="" fill="#0000ff">Kashmiri - Kashmiri [kash1277#############]</text></a></g><g transform="translate(673.33,478.04)rotate(0)"><a href="https://glottolog.org/resource/languoid/id/balk1252#############"><text x="15.00" y="2.81" style="" fill="#0000ff">Romani - Balkan Romani [balk1252#############]</text></a></g><g transform="translate(673.33,462.65)rotate(0)"><a href="https://glottolog.org/resource/languoid/id/sans1269#############"><text x="15.00" y="2.81" style="" fill="#0000ff">Vedic_Sanskrit - Sanskrit [sans1269#############]</text></a></g><g transform="translate(673.33,447.25)rotate(0)"><a href="https://glottolog.org/resource/languoid/id/east2304#############"><text x="15.00" y="2.81" style="" fill="#0000ff">Baluchi - Eastern Balochi [east2304#############]</text></a></g><g transform="translate(673.33,431.86)rotate(0)"><a href="https://glottolog.org/resource/languoid/id/cent1972#############"><text x="15.00" y="2.81" style="" fill="#0000ff">Kurdish - Central Kurdish [cent1972#############]</text></a></g><g transform="translate(673.33,416.47)rotate(0)"><a href="https://glottolog.org/resource/languoid/id/west2369#############"><text x="15.00" y="2.81" style="" fill="#0000ff">Persian_List - Western Farsi [west2369#############]</text></a></g><g transform="translate(673.33,401.07)rotate(0)"><a href="https://glottolog.org/resource/languoid/id/taji1245#############"><text x="15.00" y="2.81" style="" fill="#0000ff">Tadzik - Tajik [taji1245#############]</text></a></g><g transform="translate(673.33,385.68)rotate(0)"><a href="https://glottolog.org/resource/languoid/id/waci1238#############"><text x="15.00" y="2.81" style="" fill="#0000ff">Waziri - Waciri [waci1238#############]</text></a></g><g transform="translate(673.33,370.28)rotate(0)"><a href="https://glottolog.org/resource/languoid/id/nort2646#############"><text x="15.00" y="2.81" style="" fill="#0000ff">Afghan - Northern Pashto [nort2646#############]</text></a></g><g transform="translate(673.33,354.89)rotate(0)"><a href="https://glottolog.org/resource/languoid/id/oldp1254#############"><text x="15.00" y="2.81" style="" fill="#0000ff">Old_Persian - Old Persian (ca. 600-400 B.C.) [oldp1254#############]</text></a></g><g transform="translate(673.33,339.50)rotate(0)"><a href="https://glottolog.org/resource/languoid/id/digo1242#############"><text x="15.00" y="2.81" style="" fill="#0000ff">Digor_Ossetic - Digor Ossetian [digo1242#############]</text></a></g><g transform="translate(673.33,324.10)rotate(0)"><a href="https://glottolog.org/resource/languoid/id/iron1242#############"><text x="15.00" y="2.81" style="" fill="#0000ff">Iron_Ossetic - Iron Ossetian [iron1242#############]</text></a></g><g transform="translate(673.33,308.71)rotate(0)"><a href="https://glottolog.org/resource/languoid/id/wakh1245#############"><text x="15.00" y="2.81" style="" fill="#0000ff">Wakhi - Wakhi [wakh1245#############]</text></a></g><g transform="translate(673.33,293.31)rotate(0)"><a href="https://glottolog.org/resource/languoid/id/aves1237#############"><text x="15.00" y="2.81" style="" fill="#0000ff">Avestan - Avestan [aves1237#############]</text></a></g><g transform="translate(673.33,277.92)rotate(0)"><a href="https://glottolog.org/resource/languoid/id/tosk1239#############"><text x="15.00" y="2.81" style="" fill="#0000ff">Albanian_Top - Northern Tosk Albanian [tosk1239#############]</text></a></g><g transform="translate(673.33,262.53)rotate(0)"><a href="https://glottolog.org/resource/languoid/id/gheg1238#############"><text x="15.00" y="2.81" style="" fill="#0000ff">Albanian_G - Gheg Albanian [gheg1238#############]</text></a></g><g transform="translate(673.33,247.13)rotate(0)"><a href="https://glottolog.org/resource/languoid/id/arbe1236#############"><text x="15.00" y="2.81" style="" fill="#0000ff">Albanian_C - Arbëreshë Albanian [arbe1236#############]</text></a></g><g transform="translate(673.33,231.74)rotate(0)"><a href="https://glottolog.org/resource/languoid/id/arva1236#############"><text x="15.00" y="2.81" style="" fill="#0000ff">Albanian_K - Arvanitika Albanian [arva1236#############]</text></a></g><g transform="translate(673.33,216.34)rotate(0)"><a href="https://glottolog.org/resource/languoid/id/mode1248#############"><text x="15.00" y="2.81" style="" fill="#0000ff">Greek_Mod - Modern Greek [mode1248#############]</text></a></g><g transform="translate(673.33,200.95)rotate(0)"><a href="https://glottolog.org/resource/languoid/id/aeol1234#############"><text x="15.00" y="2.81" style="" fill="#0000ff">Greek_ML - Aeolic [aeol1234#############]</text></a></g><g transform="translate(673.33,185.56)rotate(0)"><a href="https://glottolog.org/resource/languoid/id/anci1242#############"><text x="15.00" y="2.81" style="" fill="#0000ff">Ancient_Greek - Ionic-Attic Ancient Greek [anci1242#############]</text></a></g><g transform="translate(673.33,170.16)rotate(0)"><a href="https://glottolog.org/resource/languoid/id/nucl1235#############"><text x="15.00" y="2.81" style="" fill="#0000ff">Armenian_Mod - Eastern Armenian [nucl1235#############]</text></a></g><g transform="translate(673.33,154.77)rotate(0)"><a href="https://glottolog.org/resource/languoid/id/nucl1235#############"><text x="15.00" y="2.81" style="" fill="#0000ff">Armenian_List - Eastern Armenian [nucl1235#############]</text></a></g><g transform="translate(673.33,139.37)rotate(0)"><a href="https://glottolog.org/resource/languoid/id/clas1249#############"><text x="15.00" y="2.81" style="" fill="#0000ff">Classical_Armenian - Classical-Middle Armenian [clas1249#############]</text></a></g><g transform="translate(673.33,123.98)rotate(0)"><a href="https://glottolog.org/resource/languoid/id/tokh1242#############"><text x="15.00" y="2.81" style="" fill="#0000ff">Tocharian_A - Tokharian A [tokh1242#############]</text></a></g><g transform="translate(673.33,108.59)rotate(0)"><a href="https://glottolog.org/resource/languoid/id/tokh1243#############"><text x="15.00" y="2.81" style="" fill="#0000ff">Tocharian_B - Tokharian B [tokh1243#############]</text></a></g><g transform="translate(673.33,93.19)rotate(0)"><a href="https://glottolog.org/resource/languoid/id/hier1240#############"><text x="15.00" y="2.81" style="" fill="#0000ff">Luvian - Hieroglyphic Luwian [hier1240#############]</text></a></g><g transform="translate(673.33,77.80)rotate(0)"><a href="https://glottolog.org/resource/languoid/id/mily1238#############"><text x="15.00" y="2.81" style="" fill="#0000ff">Lycian - Milyan [mily1238#############]</text></a></g><g transform="translate(673.33,62.40)rotate(0)"><a href="https://glottolog.org/resource/languoid/id/hitt1242#############"><text x="15.00" y="2.81" style="" fill="#0000ff">Hittite - Hittite [hitt1242#############]</text></a></g></g></g></g><g class="toyplot-coordinates-Axis" id="te795533f7a334489a6e25a58731cbb2c" transform="translate(50.0,1645.0)translate(0,20.0)"><line x1="1.3821010239064775" y1="0" x2="623.3275617818375" y2="0" style="" /><g><line x1="623.3275617818375" y1="0" x2="623.3275617818375" y2="-5" style="" /><line x1="554.2225105865119" y1="0" x2="554.2225105865119" y2="-5" style="" /><line x1="485.11745939118623" y1="0" x2="485.11745939118623" y2="-5" style="" /><line x1="416.0124081958606" y1="0" x2="416.0124081958606" y2="-5" style="" /><line x1="346.90735700053494" y1="0" x2="346.90735700053494" y2="-5" style="" /><line x1="277.80230580520924" y1="0" x2="277.80230580520924" y2="-5" style="" /><line x1="208.6972546098836" y1="0" x2="208.6972546098836" y2="-5" style="" /><line x1="139.59220341455799" y1="0" x2="139.59220341455799" y2="-5" style="" /><line x1="70.48715221923229" y1="0" x2="70.48715221923229" y2="-5" style="" /><line x1="1.3821010239066112" y1="0" x2="1.3821010239066112" y2="-5" style="" /></g><g><g transform="translate(623.3275617818375,6)"><text x="-2.78" y="8.555" style="fill:rgb(16.1%,15.3%,14.1%);fill-opacity:1.0;font-family:helvetica;font-size:10.0px;font-weight:normal;stroke:none;vertical-align:baseline;white-space:pre">0</text></g><g transform="translate(554.2225105865119,6)"><text x="-8.34" y="8.555" style="fill:rgb(16.1%,15.3%,14.1%);fill-opacity:1.0;font-family:helvetica;font-size:10.0px;font-weight:normal;stroke:none;vertical-align:baseline;white-space:pre">941</text></g><g transform="translate(485.11745939118623,6)"><text x="-11.12" y="8.555" style="fill:rgb(16.1%,15.3%,14.1%);fill-opacity:1.0;font-family:helvetica;font-size:10.0px;font-weight:normal;stroke:none;vertical-align:baseline;white-space:pre">1881</text></g><g transform="translate(416.0124081958606,6)"><text x="-11.12" y="8.555" style="fill:rgb(16.1%,15.3%,14.1%);fill-opacity:1.0;font-family:helvetica;font-size:10.0px;font-weight:normal;stroke:none;vertical-align:baseline;white-space:pre">2822</text></g><g transform="translate(346.90735700053494,6)"><text x="-11.12" y="8.555" style="fill:rgb(16.1%,15.3%,14.1%);fill-opacity:1.0;font-family:helvetica;font-size:10.0px;font-weight:normal;stroke:none;vertical-align:baseline;white-space:pre">3763</text></g><g transform="translate(277.80230580520924,6)"><text x="-11.12" y="8.555" style="fill:rgb(16.1%,15.3%,14.1%);fill-opacity:1.0;font-family:helvetica;font-size:10.0px;font-weight:normal;stroke:none;vertical-align:baseline;white-space:pre">4703</text></g><g transform="translate(208.6972546098836,6)"><text x="-11.12" y="8.555" style="fill:rgb(16.1%,15.3%,14.1%);fill-opacity:1.0;font-family:helvetica;font-size:10.0px;font-weight:normal;stroke:none;vertical-align:baseline;white-space:pre">5644</text></g><g transform="translate(139.59220341455799,6)"><text x="-11.12" y="8.555" style="fill:rgb(16.1%,15.3%,14.1%);fill-opacity:1.0;font-family:helvetica;font-size:10.0px;font-weight:normal;stroke:none;vertical-align:baseline;white-space:pre">6585</text></g><g transform="translate(70.48715221923229,6)"><text x="-11.12" y="8.555" style="fill:rgb(16.1%,15.3%,14.1%);fill-opacity:1.0;font-family:helvetica;font-size:10.0px;font-weight:normal;stroke:none;vertical-align:baseline;white-space:pre">7526</text></g><g transform="translate(1.3821010239066112,6)"><text x="-11.12" y="8.555" style="fill:rgb(16.1%,15.3%,14.1%);fill-opacity:1.0;font-family:helvetica;font-size:10.0px;font-weight:normal;stroke:none;vertical-align:baseline;white-space:pre">8466</text></g></g><g class="toyplot-coordinates-Axis-coordinates" style="visibility:hidden" transform=""><line x1="0" x2="0" y1="-3.0" y2="4.5" style="stroke:rgb(43.9%,50.2%,56.5%);stroke-opacity:1.0;stroke-width:1.0" /><text x="0" y="-6" style="alignment-baseline:alphabetic;fill:rgb(43.9%,50.2%,56.5%);fill-opacity:1.0;font-size:10px;font-weight:normal;stroke:none;text-anchor:middle" /></g></g><g transform="translate(500.0,42.0)"><text x="-295.267" y="-4.823" style="fill:rgb(16.1%,15.3%,14.1%);fill-opacity:1.0;font-family:helvetica;font-size:14.0px;font-weight:bold;stroke:none;vertical-align:baseline;white-space:pre">Summary tree of a Bayesian analysis of the Indo-European family with branches in years</text></g></g></svg>